<svg width="1200" height="630" viewBox="0 0 1200 630" fill="none" xmlns="http://www.w3.org/2000/svg">
  <rect width="1200" height="630" fill="#1B1F3B"/>
  <rect x="80" y="80" width="1040" height="470" rx="24" fill="#23284A"/>
  <!-- V logo mark -->
  <rect x="120" y="120" width="120" height="120" rx="18" fill="#5B6AE0"/>
  <path d="M138 152L174 232H185H196L232 152H216L185 220L154 152H138Z" fill="white"/>
  <!-- Site name -->
  <text x="262" y="202" font-family="Georgia, serif" font-size="72" font-weight="700" fill="white" letter-spacing="-2">Vectric</text>
  <!-- Tagline -->
  <text x="120" y="310" font-family="Arial, sans-serif" font-size="32" fill="#9BA3C8" letter-spacing="0.5">Premium Insights Across Every Domain</text>
  <!-- Category pills -->
  <rect x="120" y="360" width="140" height="44" rx="22" fill="#5B6AE0" opacity="0.3"/>
  <text x="190" y="388" font-family="Arial, sans-serif" font-size="18" fill="#8A94E8" text-anchor="middle">Technology</text>
  <rect x="276" y="360" width="108" height="44" rx="22" fill="#5B6AE0" opacity="0.2"/>
  <text x="330" y="388" font-family="Arial, sans-serif" font-size="18" fill="#8A94E8" text-anchor="middle">Sports</text>
  <rect x="398" y="360" width="116" height="44" rx="22" fill="#5B6AE0" opacity="0.2"/>
  <text x="456" y="388" font-family="Arial, sans-serif" font-size="18" fill="#8A94E8" text-anchor="middle">Business</text>
  <rect x="528" y="360" width="100" height="44" rx="22" fill="#5B6AE0" opacity="0.2"/>
  <text x="578" y="388" font-family="Arial, sans-serif" font-size="18" fill="#8A94E8" text-anchor="middle">Health</text>
  <rect x="642" y="360" width="96" height="44" rx="22" fill="#5B6AE0" opacity="0.2"/>
  <text x="690" y="388" font-family="Arial, sans-serif" font-size="18" fill="#8A94E8" text-anchor="middle">Travel</text>
  <rect x="752" y="360" width="160" height="44" rx="22" fill="#5B6AE0" opacity="0.2"/>
  <text x="832" y="388" font-family="Arial, sans-serif" font-size="18" fill="#8A94E8" text-anchor="middle">Entertainment</text>
  <!-- Bottom line -->
  <rect x="120" y="480" width="600" height="2" rx="1" fill="#5B6AE0" opacity="0.4"/>
  <text x="120" y="540" font-family="Arial, sans-serif" font-size="24" fill="#6B7280">vectric.replit.app</text>
</svg>
